<svg id="图层_1" data-name="图层 1" xmlns="http://www.w3.org/2000/svg" viewBox="0 0 1000 1000"><defs><style>.cls-1{fill:#ca4736;}</style></defs><title>logo</title><path class="cls-1" d="M817.67,16.65q16,2.52,13.79,19.83t-8,30a628.07,628.07,0,0,0-27.94,75.51q-12.71,41.77-3.27,79.74,12.35,29.52,40.29,49.78t37.38,64.12c11.61,91.69-14.57,319.49-30.53,396.83s-37.26,158.48-63.88,243.42q-5.07,6.75-10.16,8.44T753,982.58q-6.53-21.09,8-68.34T785,840q19.59-63.29,33.39-146c9.19-55.12,33.88-248.75,28.08-294.32-1.94-19.12-3.84-38.1-7.71-56.95a93.76,93.76,0,0,0-26.13-48.51l-49.36,397.4q-1.46,23.63-8.71,62.44T724,781.92A883.34,883.34,0,0,1,733.47,676c5.32-35.72,23.25-145.55,28.09-181L777,346.55l9.44-71.72q-.74-5.06-12.7-29.11T756.7,204q-3.63-43.87,15.6-89t33-84.79ZM565.39,37.14h133.5A127.82,127.82,0,0,1,726,38.79q14.19,2.31,9,18.84l-49,7.93,1.29,55.52,21.28,2q2.58-13.87,3.87-28.09t19.35-12.23q11.61,21.15,6.45,64.44t-12.9,67.09q-11,7.28-20,8.59a84.36,84.36,0,0,0-14.83,3.31q-7.74,7.92-4.84,20.15t-17.73,13.55q-12.25-23.79-10.64-72.7t2.25-79.31l1.29-40.32-34.18-3.31V211a170.34,170.34,0,0,1-.32,31.4q-1.61,16.19-19.67,17.51l-8.38-30.4-29-13.88q-12.9-18.51-16.77-61.47t6.45-64.77l11.61-2c6,12.34,8.06,36.43,8.06,36.43s5.48-.3,18.38-.74l3.22-57.5q-12.26-1.32-31-2T554.42,43.75ZM584.6,195.08l13.68,4L597,149.16s-13.28.31-15.84,3C573.07,160.68,584.6,195.08,584.6,195.08Zm104.61,5.31,16.12-4.63q2.58-20.49,5.16-32.71t-21.28-12.89Zm-57.4,59.48q29.67,1.32,47.41,21.81T715.65,324a154.19,154.19,0,0,1,16.45,18.51q8.05,10.58,4.84,21.81h-20l-54.17-60.8-24.51-15.21-14.83,8.6q-12.25,15.19-34.18,43.29t-38,27.43q-7.1-7.28-4.84-12.89t6.13-14.21a485.09,485.09,0,0,0,36.11-43Q605.37,275.08,631.81,259.87Zm-21.92,70.72q12.89-.66,38.69-1.32t35.47,6L686,349.1Q671.8,361,645,359.35t-44.82-6.94L597,337.2Zm49.65,46.93a60.69,60.69,0,0,1,23.87,4.63q11,4.62,2.58,19.16-18.71,4-29,4.63t-11,25.78q18.06,3.3,44.82,1.65t29.35,18.18q-17.42,10.57-41.6,7.93t-32.57.66L649.87,587q20,2.64,53.53.66t36.76,19.17a33.71,33.71,0,0,1-23.22,10.57,175.5,175.5,0,0,1-26.44-.66l-131.56-3.3q-4.52-4.63-5.49-8.93t2.26-10.9l69-6.61-6.45-124.92q-14.84-1.32-38.37-1.32t-17.74-22.47L617,433l4.51-25.12q5.16-13.21,13.55-20.82T659.54,377.52Zm-80.61,97.82,9.67,3.31L590.54,558l-14.84,5.29q-7.08-14.55-8.06-40.65t4.84-42Zm114.8,3.31q14.17,8.58,15.47,40.31t-7.09,45.61l-11.61,2q-9-11.89-8.71-39t4.2-43.62Z"/><path class="cls-1" d="M345.32,16.65q11,1,12.48,11a71,71,0,0,1,.48,18.24v81.15q3.84,4.32,12.25,2.4a104.9,104.9,0,0,0,12.24-3.36q11.52-13,11-31.69a320.4,320.4,0,0,1,1-35.53q1-5.76,4.56-8.16t9.37-1q9.12,15.84,5.52,41.77t-10.33,41.29a43.12,43.12,0,0,1-14.64,10.56,72.35,72.35,0,0,1-17,4.8l-13.93,2.4v23.53l73.94,1A57.58,57.58,0,0,1,447.11,177q7.2,1.92,7.2,11-15.36,9.12-36,5.28t-34.09,2.88q13,13,15.12,25T395.73,249l-13.92,13,10.56,49.45,13.93,134q2.88,12,3.12,33.61t-14.65,17.76q-10.56-34.56-12.72-79.46T374.61,335l-9.13-56.65-31.68,9.6q-18.74,1.44-45.62-16.09t-24-36.73q5.76-2.88,9.84-1t8.88,4.33q17.78,19.2,32.17,26.16t38.41-5q-11-9.12-30.73-24.73t-19.68-28.08a12.82,12.82,0,0,1,12.24-.48A72.39,72.39,0,0,1,326.59,213l43.22,35q18.72-19.22,8.64-27.61t-13-25.21l-95.06-1.44a39.79,39.79,0,0,1-17-1.92q-8.9-2.88-3.13-13a95.26,95.26,0,0,1,31.45-4.32q16.1.48,31.93.48h24.49l1.44-25.45a158.29,158.29,0,0,0-17.77-2.88q-9.12-1-17.76-7.68-13.44-13.44-15.13-41.77t3.61-46.57l10.56-1q9.12,22.08,5.52,49.69t29.53,30q6.24-24,1.2-56.42T345.32,16.65ZM242.09,31.05a28.59,28.59,0,0,1,11.29,1.2q5,1.68,2.64,9.36L210.4,67.06q-7.2,12.48-7.92,40.81t-.24,43.69l16.33-1.92q10.56-14.88,11.76-37.93t14.16-22.08q8.64,10.56,6.48,30.72t-8.88,31.21A112.93,112.93,0,0,1,232,162.13q-4.32,3.84-12.48,7.2l-17.29,3.36v82.58A18.27,18.27,0,0,0,212.8,255a30.39,30.39,0,0,0,9.13-4.56q6.72-13.92,8.4-36t14.16-21.61q9.6,12.5,5,33.85T238.73,261q-10.08,9.12-20.16,10.32T203.2,275l-1,130.6v70.1a34.71,34.71,0,0,1-2.88,12.72q-2.4,5-11.52,2.64a43.72,43.72,0,0,1-6-23.52q.24-13,.24-25.93l1.44-116.19v-49l-31.69-9.61q-16.32-10.56-19-34.33t4.57-39.61h8.16q9.6,15.85,7.2,38.65t29.29,24.73l1.44-83.54L148,161.17q-13-13.93-15.61-34.33t5.05-37.21h8.16q9.6,15.84,7.2,38.65T182.08,153a208.65,208.65,0,0,0,3.36-64.57Q182.08,56,221,40.17Zm13,288.56h80.66a71,71,0,0,1,16.8,1q7.68,1.44,8.16,12-15.84,7.68-55.21,7.44t-57.62-5V323Z"/><path class="cls-1" d="M324.15,529.73q13.64.91,24.09,12.73a98.26,98.26,0,0,1,15.91,23.64,171.62,171.62,0,0,1,12.27,37.72Q380,622.46,383.24,642L381,682q2.73,7.72,18.41,6.37t22.5-4.09q18.18-20.91,6.82-52t-23.64-53a180.16,180.16,0,0,1-9.77-21.36q-4.77-12.28,9.77-13.64,23.64,25,38.41,70.68t-1.13,76.59a50.76,50.76,0,0,1-17.73,13,54.44,54.44,0,0,1-21.82,4.32l-25.45-1.36-5,25.45q-4.54,25.46-8.41,52.27a175.45,175.45,0,0,0,.23,52.73,442.27,442.27,0,0,0,13.63,56.81q8.64,27.74,17.73,55.91A105.44,105.44,0,0,1,401.64,972q2.06,11.37-12.49,12.28-11.37-13.18-19.1-37.5a332.59,332.59,0,0,1-10.9-42.5l-10.91-39.55a359.45,359.45,0,0,1-4.55-45.22A253.64,253.64,0,0,1,346,773.82q6.38-30.92,13.87-70.45t2.95-70.91a253.13,253.13,0,0,0-7.5-38,96.49,96.49,0,0,0-17.95-34.78l-14.55-13.18q-3.18-4.09-2.95-7.5T324.15,529.73Zm-124.54,5q8.63,3.19,10,10.23a59.3,59.3,0,0,1,.9,14.77q-.45,16.37,0,33.64a79.11,79.11,0,0,0,7.28,31.82q10,15,31.59,31.13T273.24,687q-5.91,4.54-11.14,3a35.23,35.23,0,0,1-10.68-5.68l-36.36-30-16.82-19.55q-8.64,14.09-30.45,36.14t-38.18,17l2.27-11.82Q147.8,662,165.29,647.23a63.79,63.79,0,0,0,22-36.59q1.36-14.08,2-40T199.61,534.73Zm73.63,18.19q11.82.45,18.86,9.09T306,579.28q23.17,29.09,23.4,62.27T311,705.18q-7.74,8.64-14.09,15.68t-18.64,9.32a18.1,18.1,0,0,1-3.18-7.5q-.46-3.4,1.82-7.95,25.44-24.54,32.27-54.55t-12.73-61.36q-7.73-7.27-17.5-21.36T273.24,552.92ZM199.61,685.64q14.08,8.64,12.27,37.5t.91,46.13q10.46,20,34.77,35.23t27,33.41q-7.73,5-13.63,2.27t-13.18-6.82Q236,822,223.47,811.77A155.2,155.2,0,0,1,199.61,787q-9.56,15.45-30.91,35.23t-39.09,18.4q-2.73-4.54-2.05-8a32.78,32.78,0,0,1,3-7.95q15.9-13.65,34.09-26.59t22.72-35.23q1.36-14.55,2-40.45T199.61,685.64Zm212.72,37.72q8.63.46,10,6.14a44,44,0,0,1,.9,13l-1.36,69.08,8.64,68.64a157.1,157.1,0,0,0,9.32,27A68.18,68.18,0,0,1,446,933.36L435.05,937q-20.44-25-26.59-75t-5.68-84.55q-.45-12.72.23-27.5A47.82,47.82,0,0,1,412.33,723.36Zm-102.73.91q5.91.47,8.87,4.32a10.79,10.79,0,0,1,2,8.87l-8.64,69.08a235,235,0,0,0,3.19,75.68,450.59,450.59,0,0,1,9.09,74.32l-10.91,2.27q-8.64-9.54-10.91-25.45t-3.64-29.09a407.15,407.15,0,0,1-6.81-68.41,388.57,388.57,0,0,1,5.45-69.31l6.36-37.28Z"/><path class="cls-1" d="M988,0H12A12,12,0,0,0,0,12V988a12,12,0,0,0,12,12H988a12,12,0,0,0,12-12V12A12,12,0,0,0,988,0Zm2,978a12,12,0,0,1-12,12H22a12,12,0,0,1-12-12V22A12,12,0,0,1,22,10H978a12,12,0,0,1,12,12Z"/></svg>