<?xml version="1.0" encoding="utf-8"?>
<!-- Generator: Adobe Illustrator 22.0.0, SVG Export Plug-In . SVG Version: 6.00 Build 0)  -->
<svg version="1.1" id="图层_1" xmlns="http://www.w3.org/2000/svg" xmlns:xlink="http://www.w3.org/1999/xlink" x="0px" y="0px"
	 viewBox="0 0 212.2 212.2" style="enable-background:new 0 0 212.2 212.2;" xml:space="preserve">
<style type="text/css">
	.st0{fill:none;stroke:#BA372F;stroke-width:4.18;}
	.st1{fill:#BA372F;}
</style>
<g id="画板_1">
	<path id="圆角矩形_1" class="st0" d="M22.9,2.1h166.4c11.5,0,20.8,9.3,20.8,20.8v166.4c0,11.5-9.3,20.8-20.8,20.8H22.9
		c-11.5,0-20.8-9.3-20.8-20.8V22.9C2.1,11.4,11.4,2.1,22.9,2.1z"/>
	<path id="冰" class="st1" d="M52.4,159.5c1.5,1.2,3.3,1.8,5.2,1.9c1.4,0,2.2-0.5,2.4-1.6c0.2-1.1-1-2.2-3.6-3.1
		c-2.6-0.9-4.3-2-5.1-3.1c-0.7-1.2-1.2-2.5-1.2-3.9l-0.1-3.2c0-0.6-0.2-1.2-0.6-1.7c-0.3-0.3-0.7-0.6-1.1-0.6c-0.6,0-1.2,0.4-1.5,1
		c-0.3,0.6-0.4,1.2-0.4,1.9v2.5c0,1.2-0.3,2.5-0.8,3.6c-0.6,1.1-1.4,2-2.4,2.8c-1.1,1-2.3,1.8-3.7,2.5l-2,1c-0.5,0.3-1,0.7-1.4,1.1
		c-0.6,0.7-0.5,1.8,0.2,2.3c0.2,0.1,0.3,0.2,0.5,0.3c0.7,0.5,2.3,0,4.8-1.5c2.5-1.5,4.7-3.5,6.5-5.9
		C49.4,157.1,50.9,158.4,52.4,159.5z M61.4,174.2c0.1,1.3,0.4,3.3,0.9,5.9c0.4,2.2,0.9,4.4,1.7,6.6l2,5.2c0.3,1,0.9,2,1.6,2.7
		c0.9,0.8,1.6,1,2,0.8c0.5-0.2,0.8-0.7,0.9-1.2c0.1-0.6,0-1.2-0.1-1.8c-0.2-0.7-0.8-2.3-1.7-4.8c-0.9-2.6-1.7-4.9-2.2-7
		c-0.6-2.5-1-5.1-1.2-7.7c-0.2-2.3-0.3-4.6-0.2-6.9c0-2.3,0.2-4.6,0.4-6.8c0.2-1.7,0.5-3.4,1-5.1l0.5-1.6c0.4-1.1,0.7-2.3,0.8-3.5
		c0.1-1.3-0.3-1.8-1.4-1.6c-1.1,0.2-2,1.8-2.9,4.7c-0.7,2.3-1.2,4.6-1.7,7c-0.3,1.6-0.5,3.2-0.5,4.9c0,1.5-0.1,2.9-0.1,4.2
		C61.2,170.1,61.3,172.2,61.4,174.2L61.4,174.2z M61.1,138.6c0.3,0.5,0.8,0.7,1.3,0.7c0.7,0.1,1.6-0.5,2.8-1.7c1-1,1.9-2.1,2.7-3.2
		c0.7-1,1.2-2.1,1.5-3.2c0.4-1.6,0.6-3.3,0.5-4.9c-0.1-2-0.4-4-1.1-5.9c-0.5-1.6-1.3-3-2.3-4.2c-0.5-0.5-1.1-0.9-1.8-1
		c-0.4,0-0.8,0.1-1.2,0.4c-0.3,0.5-0.4,1-0.2,1.6c0.2,0.9,0.5,1.7,1,2.4l0.9,1.4c0.8,1.5,1.2,3.1,1.2,4.8c0,1.4-0.2,2.9-0.6,4.2
		c-0.4,1-0.8,1.9-1.4,2.7l-2.4,3.4c-0.3,0.4-0.5,0.7-0.5,0.7C61.1,137.2,61,137.9,61.1,138.6z M78,119.9c-0.5-4.2-2-7.4-4.6-9.5
		c-1.2-0.9-2-1-2.5-0.3c-0.5,0.5-0.7,1.2-0.5,1.8c0.5,1,1.1,2,1.8,2.9c1,1.4,1.8,4.1,2.4,8.1c0.3,2.1,0.4,4.2,0.4,6.4
		c-0.2,2.5-0.6,5-1.2,7.5c-0.8,3.2-1.3,5.7-1.7,7.4c-0.3,1.7-0.7,5.1-1.1,10.2c-0.3,3.4-0.4,6.4-0.3,8.8c0.2,3.9,0.5,7.8,1.1,11.6
		c0.8,5.7,2.4,11.3,4.7,16.6c2.4,5.8,4.7,8.7,6.9,8.8c0.6,0.2,1.2-0.2,1.4-0.8c0-0.2,0-0.3,0-0.5c-0.3-1.6-0.9-3.2-1.8-4.6
		c-1.3-2.4-2.3-4.9-3.2-7.4c-1-2.8-1.9-5.8-2.8-9c-0.9-3.2-1.5-6.5-1.9-9.8c-0.4-3.3-0.5-6.7-0.5-10c0-3.8,0.4-7.7,1.1-11.5
		l2.2-10.8c0.4-2.2,0.6-4.4,0.8-6.7C78.6,126,78.4,122.9,78,119.9z M84.5,114.7c-0.8-1.9-1.6-2.9-2.5-2.9c-0.5,0-0.9,0.2-1.2,0.6
		c-0.4,0.6-0.4,1.4-0.2,2l1.2,3.6c0.3,1.1,0.5,2.2,0.7,3.4c0.2,1.2,0.3,2.5,0.3,3.7c0.1,1.8-0.1,3.5-0.5,5.3c-0.3,1.4-0.7,2.7-1.2,4
		c-0.3,0.8-0.7,1.7-1.1,2.5c-0.6,0.8-1,1.8-1.1,2.8c0,0.6,0.4,1,0.9,1.3c0.5,0.3,1.5-0.5,3-2.2c1.4-1.7,2.5-4.5,3.2-8.4
		c0.3-1.9,0.5-3.9,0.3-5.8c-0.1-1.8-0.2-3-0.3-3.7C85.8,118.7,85.3,116.7,84.5,114.7L84.5,114.7z M81.9,174
		c1.7,5.5,3.8,9.7,6.4,12.6c2.1,2.4,3.2,2.8,3.5,1.2c0.3-1.5,0-3-0.8-4.2c-0.8-1.2-1.7-2.6-2.6-4.3c-0.9-1.5-1.7-3.1-2.4-4.8
		c-0.9-2.4-1.5-4.8-1.9-7.3c-0.6-2.7-0.9-5.4-1-8.1c-0.1-2.1,0.1-4.2,0.7-6.2c0.4-1.3,0.6-2.6,0.8-3.9c0-1.1-0.4-1.6-1.1-1.5
		c-0.7,0.1-1.3,0.4-1.7,1c-0.5,0.7-0.9,1.5-1.2,2.3c-0.5,1.6-0.7,3.2-0.8,4.8c-0.2,2.2-0.3,3.6-0.3,4.1
		C79.5,164.5,80.4,169.3,81.9,174L81.9,174z M48.9,136.8c1.1,1.3,2.4,2.4,3.9,3.3c1.8,1.3,3.9,2.1,6.1,2.3c1.2,0.1,1.8-0.2,2-1
		c0.1-0.8-0.2-1.6-0.9-2c-1.4-0.8-2.8-1.6-4.3-2.1c-1.8-0.6-3.3-1.8-4.4-3.3c-0.7-1.1-1.1-2.4-1.4-3.7c-0.3-1.9-0.3-3.8-0.2-5.6
		c0.1-2,0-4-0.1-6c-0.1-1.5-0.6-2.2-1.5-2.3c-0.6-0.1-1.2,0.3-1.4,0.9c-0.3,0.6-0.4,1.3-0.4,1.9c-0.1,1.8-0.1,3.8,0,5.9
		c0.1,2.1,0.1,3.6,0,4.4c-0.1,1.5-0.5,2.9-1.2,4.2c-0.7,1.2-2.3,2.7-4.9,4.3l-2.4,1.5c-0.5,0.3-1,0.7-1.4,1.1
		c-0.4,0.4-0.7,1-0.7,1.6c0.1,0.5,0.5,0.9,1,0.9c1,0.1,2-0.1,2.9-0.5c1.5-0.5,2.9-1.3,4.1-2.3c1-0.8,2-1.6,2.9-2.6
		c0.5-0.6,1.1-1.3,1.6-2C48.4,136,48.7,136.4,48.9,136.8z"/>
	<path id="持" class="st1" d="M58.5,73.8c-0.5,0.6-0.7,1.3-0.4,2c0.2,0.8,1.8,1.1,4.7,0.9c1.3-0.1,4.1-0.1,8.5-0.1s6.8-0.3,7.4-0.9
		c0.4-0.5,0.6-1.1,0.5-1.7c-0.1-0.8-1.9-1.2-5.6-1.2c-2.9,0-6.5,0-10.7,0C60.6,72.7,59.1,73.1,58.5,73.8L58.5,73.8L58.5,73.8z
		 M76.7,54.7c-1.3-1.5-2.9-3-4.5-4.5c-1.7-1.5-2.9-2.4-3.7-2.5C68,47.5,67.3,47.6,67,48c-0.2,0.5-0.2,1,0,1.4c0.5,1.1,1.2,2,2.1,2.7
		c1.3,1.2,2.4,2.4,3.5,3.6s2.7,3,4.7,5.6c-1.6,0.7-3.4,1.1-5.2,1c-2.1,0-4.1-0.6-5.8-1.7c-1.5-0.9-2.8-2.2-3.6-3.9
		c-0.4-0.9-0.8-1.7-1.3-2.5c-0.1-0.2-0.3-0.3-0.5-0.3c-0.5-0.1-0.9,0-1.3,0.4c-0.4,0.3-0.6,1.2-0.4,2.5c0.6,3.9,3.4,7,7.2,8.1
		c2.3,0.7,4.6,1.1,7,1c1.9-0.1,3.8-0.2,5.7-0.5c0.8,2.4,1.5,4.6,2.1,6.8c0.6,2.2,1.1,4.7,1.5,7.5c0.5,2.8,0.8,5.7,1.1,8.5
		s0.4,5.5,0.6,8.1c0.1,2.5,0.2,4.2,0.4,5.1c0,0.7,0.3,1.4,0.8,1.9c1.3,1.2,2.1,0.9,2.4-0.8c0.2-1.4,0.4-2.8,0.4-4.3
		c0-1.4-0.1-3.4-0.2-6s-0.4-5.6-0.9-9.1c-0.4-3.5-0.9-6.5-1.5-9.2c-0.8-3.5-1.9-6.8-3.2-10.1c1.4-0.9,2.6-2.1,3.4-3.6
		c0.7-1.4,1-2.9,0.9-4.5c-0.1-2-0.7-3.9-1.6-5.6c-1-2-2.4-3-4.2-3.1c-1.3-0.1-1.8,0.2-1.7,0.8c0.1,0.4,0.2,0.8,0.4,1.1l2.3,2.6
		c0.4,0.6,0.8,1.2,1,1.9c0.3,0.8,0.5,1.6,0.5,2.4c0,1.8-0.3,2.8-1,3.3c-0.6,0.4-1.2,0.7-1.8,0.9C79.6,58.1,78.2,56.3,76.7,54.7z
		 M78.1,32.2V23c0-2,0-3.6,0.1-4.9c0.1-1.4,0-2.9-0.2-4.3c-0.2-1.3-0.6-1.9-1.1-1.9c-0.5,0-1.1,0.2-1.4,0.6
		c-0.4,0.5-0.7,1.2-0.8,1.9c-0.2,1.5-0.3,2.9-0.2,4.4c0.1,1.9,0.1,4.4,0.1,7.5c0,3.1,0,5.2,0,6.3c-1.5-0.4-2.9-0.9-4.2-1.6
		c-0.5-0.4-1-0.9-1.4-1.4c-0.6-1.1-1-2.4-1.1-3.7c-0.2-1.1-0.3-2.1-0.3-3.2l0.1-3.9c-0.1-0.6-0.4-1.1-0.8-1.6
		c-0.5-0.6-0.9-0.4-1.5,0.3c-0.3,0.5-0.7,1-0.9,1.5c-0.4,1.5-0.5,3-0.4,4.5c0,1.9,0.2,3.9,0.6,5.8c0.2,1.4,0.9,2.7,1.9,3.7
		c1,0.9,2.1,1.7,3.4,2.2c1.4,0.6,2.9,0.9,4.4,0.9l0,5.6h-6.3c-4.6,0.2-7.2,0.4-7.8,0.8c-0.5,0.2-0.9,0.6-1.1,1.2
		c-0.1,0.5,0.2,1.1,0.7,1.3c0.6,0.4,1.2,0.5,1.9,0.5l5.1-0.3c0.3,0,2.2,0,5.8,0.1l7.9-0.1c2.2,0,4.5,0.1,6.9,0.2
		c2.4,0.1,3.9,0,4.5-0.4c0.4-0.2,0.6-0.6,0.7-1c-0.1-0.5-0.3-0.9-0.6-1.2c-0.6-0.6-1.5-0.9-2.3-0.9c-1.2-0.1-5-0.2-11.4-0.3l0-5.5
		c3.8-0.6,6.2-2.1,7.3-4.5c1.1-2.4,1.7-4.9,1.9-7.5c0.3-5.3-0.3-8-1.8-8.1c-0.9-0.1-1.4,0.6-1.5,1.9c0,0.1,0,1.1,0.1,3
		c0,2.3-0.2,4.7-0.6,6.9C83.1,30.5,81.2,32,78.1,32.2L78.1,32.2L78.1,32.2z M42.4,38.3C41.5,37,41,35.5,41,33.9l-0.3-5
		c-0.1-0.6-0.2-1.2-0.5-1.8c-0.2-0.4-0.5-0.7-0.9-0.8c-0.6,0-1.1,0.4-1.3,1c-0.3,0.7-0.5,1.5-0.5,2.3c0,2.6,0.2,5.2,0.5,7.8
		c0.3,3.6,3,5.8,8.1,6.5l-0.1,17c-2.9-0.5-4.5-1.7-4.9-3.5c-0.4-1.5-0.6-3.1-0.6-4.7c0-1-0.1-2-0.4-2.9c-0.1-0.5-0.4-0.9-0.9-1.1
		c-0.4,0-0.9,0.3-1.1,0.6c-0.5,0.9-0.7,1.8-0.7,2.8c-0.1,1.4,0,2.7,0.1,4c0.3,1.7,0.9,3.3,1.8,4.8c1.1,1.9,3.3,3.1,6.7,3.5l-0.1,2.2
		c-0.1,1.8-0.5,5-1.1,9.5c-0.5,3.7-1.2,7.3-2.1,10.9c-0.7,2.8-1.4,5-2.1,6.8c-0.6,1.8-1.3,3.6-2,5.5c-0.7,1.9-1,3-0.7,3.4
		c0.2,0.3,0.4,0.6,0.8,0.7c0.7-0.1,1.3-0.4,1.8-0.9c0.9-0.7,2-2.7,3.3-6.2c1.2-3,2.1-6.1,2.9-9.2c0.8-3.4,1.3-6.7,1.7-10.2
		c0.5-4.1,0.8-7,1-8.6c0.1-1.6,0.2-3,0.3-4c2-0.2,3.9-1,5.3-2.4c1.2-1.2,2-2.7,2.4-4.3c0.5-1.8,0.7-3.7,0.7-5.5
		c0.1-1.4-0.1-2.7-0.6-4c-0.2-0.5-0.6-0.9-1.2-1.1c-0.4,0-0.9,0.2-1,0.6c-0.3,0.4-0.4,0.9-0.5,1.4c0,0.4-0.1,1.4-0.1,3
		c0,1.4-0.2,2.7-0.5,4c-0.2,1.1-0.7,2.1-1.4,2.9c-0.9,0.9-2,1.6-3.2,1.8L49.5,44c3.8-0.7,6-2.2,6.8-4.4c0.8-2,1.2-4.2,1.4-6.3
		c0.1-1.8,0-3.5-0.2-5.3c-0.2-1.5-0.8-2.3-1.8-2.3c-1,0-1.5,0.4-1.4,1.2c0,0.9,0.1,1.8,0.2,2.7c0.1,1.1,0.2,2.2,0.1,3.3
		c-0.1,1.2-0.3,2.5-0.6,3.7c-0.2,1-0.8,2-1.6,2.7c-0.5,0.5-1.1,0.8-1.8,0.9c-0.4,0-0.8,0-1.2,0v-8.6c0-2.5,0-4.6-0.1-6.5
		c-0.2-1.4,0.1-2.9,0.6-4.2c0.5-1,1.2-1.8,2.2-2.3c1.3-0.7,2.7-1.2,4.2-1.5c1.3-0.2,2.6-0.6,3.8-1c1.3-0.5,2-1.2,2-1.9
		s-0.6-1.2-1.8-1.2c-2.3,0.1-4.5,0.4-6.7,1c-2.8,0.7-4.7,1.9-5.6,3.6c-0.8,1.4-1.4,3-1.7,4.6c-0.2,1.6-0.3,3.3-0.2,5
		c0,2.1,0,3.8,0,4.9c0,1.2,0,2.8,0,4.9c0,2.1,0,3.2,0,3.4C44.6,40,43.3,39.4,42.4,38.3z"/>
	<path id="刘" class="st1" d="M144.4,54.6c0.9-0.8,1.6-1.8,2-3c0.5-1.4,0.8-2.9,0.8-4.5c0-2.1-0.1-4.1-0.4-6.2
		c-0.3-2.4-1.4-4-3.1-4.7c-2-0.7-4.2-0.9-6.3-0.5l-0.2-5.9l7.3,0.1l3.3-0.1c0.3-0.1,0.5-0.2,0.8-0.5c0.4-0.7,0.6-1.5,0.5-2.3
		c0-1.1-1.3-1.9-3.8-2.2h-25.5c-1.8,0-3.1,0.3-3.7,1.1c-0.6,0.6-0.8,1.5-0.7,2.3c0.2,0.8,0.8,1.5,1.6,1.9c0.9,0.4,2.3,0.5,4.3,0.2
		c1.8-0.3,3.6-0.5,5.4-0.6l0.1,5.9c-4.3,0.4-7.1,1.3-8.3,2.7c-1.1,1.2-1.9,2.7-2.3,4.4c-0.3,1.7-0.5,3.5-0.5,5.3
		c-0.1,1.7,0.3,3.4,1.1,4.9c0.8,1.3,1.9,2.4,3.3,2.9c1.5,0.6,3.8,0.7,7.1,0.2l0.3,6.2l-2.4,2.6l-5.7,4.9c-1,1-1.9,2-2.7,3.1
		c-0.7,0.8-1.4,1.8-2,2.7c-0.6,0.9-0.7,2-0.5,3c0.3,0.8,1.2,1.1,2.6,1.2c1.4,0,3.4-1.7,6.1-5.3c1.6-2.2,3.3-4.4,5.1-6.4
		c0.7-0.7,1.4-1.3,2.2-1.8c0.5-0.4,1.1-0.6,1.8-0.8c1.2-0.2,2.6,0.8,4.3,2.8c3.1,3.5,6.5,6.8,10,9.9c1.4,1.4,2.4,1.8,2.9,1.2
		c0.5-0.6,0.4,1,0.4,0.5c0-0.6,0.1-3.5-0.5-4.5c-0.8-1.3-1.7-2.5-2.8-3.6l-6.8-6.1c-0.5-0.4-1.2-1.1-2.2-2l0.1-7.7
		C141.2,55.8,143.5,55.3,144.4,54.6z M127.2,50.7l-3-0.5l-3.7-0.7c-0.5-0.8-0.7-1.7-0.6-2.5c0-1,0.2-1.9,0.5-2.8
		c0.4-0.8,0.9-1.5,1.6-2c0.7-0.6,2.3-1,4.7-1.2L127.2,50.7L127.2,50.7L127.2,50.7z M131.6,59.5l-0.4-7.1c-0.3-3.8-0.5-11.4-0.9-22.8
		l3,0.1l0.6,30.9C133.3,60,132.5,59.6,131.6,59.5L131.6,59.5L131.6,59.5z M137.4,40.2l4.4,0.9c0.4,0,0.6,0.5,0.8,1.4
		c0.2,1.2,0.3,2.5,0.2,3.7c0,1.2-0.2,2.3-0.7,3.4c-0.4,0.7-1.1,1.2-1.9,1.4c-0.9,0.2-1.9,0.2-2.8,0.1L137.4,40.2z M121.6,118.6
		c-2.1,0.4-3.4,1.1-3.9,2c-0.5,0.8-0.3,1.8,0.5,2.3c0.8,0.6,3.2,1,7.4,1.1c4.2,0.1,7.5,0.1,9.9-0.1c2.4-0.1,4.6-0.2,6.6-0.2
		s3.1-0.4,3.5-1c0.4-0.5,0.6-1.1,0.7-1.8c0-0.7-0.3-1.3-0.7-1.9c-0.5-0.7-1.6-0.9-3.5-0.8c-2.5,0.1-5.1,0.1-7.6-0.1l-0.5-21.6
		l5.4-0.2c1.4,0,2.7-0.2,4-0.7c0.6-0.3,1-0.9,1.1-1.5c0-0.8-0.4-1.6-1.1-2.2c-0.8-0.8-2.2-1.1-4.2-0.9c-1.8,0.2-3.7,0.2-5.5,0
		l0.2-2.9c0-1.2,0.9-2.3,2.2-2.4l3.1-0.3c0.6-0.1,1.1-0.5,1.4-1c0.3-0.7,0.2-1.5-0.3-2.1c-0.5-0.9-1.6-1.4-3.4-1.6
		c-1.6-0.2-3.2,0.1-4.6,0.9c-1.3,0.7-2.2,1.9-2.5,3.3c-0.4,2-0.4,4-0.1,6l-2.2,0.1l-6.2,0.3c-0.8,0.1-1.6,0.4-2.2,0.9
		c-0.5,0.4-0.8,1.1-0.8,1.8c0,0.6,0.3,1.3,0.7,1.7c0.4,0.4,1.5,0.5,3.1,0.4c2.6-0.2,5.2-0.2,7.8,0l0.1,11c0,1.2,0.1,4.9,0.3,10.9
		C127.5,118.1,124.5,118.2,121.6,118.6L121.6,118.6z M120.2,104.4c-0.1,2.5-0.4,4.9-0.9,7.4c-0.3,0.9-0.4,1.9-0.4,2.8
		c0,0.6,0.3,1.3,0.8,1.6c0.5,0.4,1.2,0.2,1.6-0.3c0.6-0.7,1.1-1.5,1.3-2.3c0.3-0.9,0.5-1.8,0.6-2.6c0.1-0.7,0.3-2.1,0.5-4.1
		c0.2-2,0.3-3.2,0.4-3.4c0.1-2.1-0.1-3.4-0.6-3.9c-0.3-0.4-0.8-0.7-1.3-0.8C121.2,98.9,120.5,100.8,120.2,104.4z M138.4,78.4
		c0.3,0,0.6,0,0.9,0c0.7,0,1.3-0.3,1.6-0.9c0.3-0.8,0.1-1.6-0.4-2.3c-0.5-1-2.1-1.7-4.7-2.2c-2.1-0.4-4.2-0.4-6.3,0
		c-1.3,0.2-2.6,0.6-3.8,1.1c-2.1,1.3-2.9,2.4-2.6,3.3c0.2,0.8,0.8,1.4,1.5,1.6c1,0.1,2.1,0,3.1-0.4c2.1-0.5,4.3-0.6,6.4-0.4
		C136.7,78.3,138.1,78.4,138.4,78.4z M139.5,108.9c0.2,1.6,0.6,3.1,1.2,4.6c0.7,1.6,1.5,2.4,2.5,2.4c0.7,0.1,1.4-0.4,1.6-1.1
		c0-0.1,0-0.2,0-0.3c0-1.1-0.2-2.3-0.6-3.3c-0.5-1.4-0.9-2.9-1.2-4.4c-0.3-0.9-0.4-1.9-0.4-2.9l0.3-3.3c0-0.7-0.2-1.3-0.7-1.8
		c-0.4-0.3-1-0.3-1.4,0c-0.7,0.5-1.1,1.3-1.1,2.1c-0.2,1.1-0.3,2.1-0.3,2.9c-0.1,0.9-0.1,1.3-0.1,1.4
		C139.3,106.4,139.4,107.6,139.5,108.9L139.5,108.9z M164.4,69.2l2,4.3c0.5,1.8,0.9,3.6,1.1,5.4c0.4,2.9,0.7,6.7,0.9,11.3
		c0.2,5.5,0.2,10.7,0.1,15.5c-0.1,4.9-0.4,10.5-0.8,16.9c-0.5,6.4-1,11.8-1.6,16.2c-0.6,4.4-1.6,10.3-3,17.6
		c-1.4,7.4-2.7,13.5-4.1,18.2c-1.3,4.8-2,7.3-2.1,7.7c-0.5,1.6-0.6,3.3-0.4,5c0.2,1.4,0.8,2.2,1.6,2.6s1.6,0,2.2-1.1
		c0.6-1,2.1-6.2,4.4-15.5c2.2-9,4-18,5.3-27.2c1.2-8.8,2-15.9,2.4-21.4c0.4-5.4,0.6-11.5,0.7-18.3c0-5-0.1-11-0.3-18
		c-0.1-6.2-1-12.3-2.6-18.3c-1.5-5.1-3.5-8.8-6-11l-4.2-3.1c-1.5-1.1-2.6-2.5-3.3-4.2c-0.8-2.1-1.1-4.3-1-6.5c-0.1-2,0.2-4,0.8-5.9
		c0.4-1.2,1.2-2.3,2.2-3.1c1-0.8,2.8-1.3,5.6-1.6l6-0.6c1.7,0,2.8-0.4,3.1-1.1c0.3-0.8,0.5-1.7,0.6-2.6c0.1-1.5-0.3-3-1-4.3
		c-0.7-1.2-2.7-1.6-5.9-1.2c-2.6,0.3-5.2,0.8-7.7,1.5c-1.8,0.5-3.4,1.6-4.5,3.1c-1.2,1.8-2.1,3.8-2.6,5.9c-0.9,3.3-1.3,6.7-1.3,10.1
		c-0.1,3,0.3,5.9,1,8.8c0.5,1.9,1.3,3.8,2.3,5.6c1.3,1.9,3,3.7,4.8,5.1l0.4,6c0,0.6,0,2.3,0,5.3c-0.1,4.4-0.2,8.3-0.4,11.5
		c-0.1,3.3-0.5,7.8-1.1,13.7c-0.6,5.9-1.2,11.2-1.9,16.1c-0.7,4.9-1.7,10.5-2.9,17c-1.3,6.5-2.3,11.5-3.2,15
		c-0.9,3.5-1.3,5.4-1.4,5.7c-0.4,1.4-0.5,2.8-0.3,4.3c0.2,1.2,0.9,2.2,1.9,2.8c1.1,0.8,2-0.3,2.6-3.3c0.7-3,1.5-6.7,2.6-11.2
		c1.1-4.5,1.9-8.4,2.6-11.6c0.6-3.2,1.5-8.1,2.5-14.8c1-6.6,1.9-13.7,2.4-21.3s0.9-13,1-16.5C164.2,80.3,164.3,75.5,164.4,69.2
		L164.4,69.2L164.4,69.2z"/>
</g>
</svg>
